<svg width="16" height="16" viewBox="0 0 16 16" fill="none" xmlns="http://www.w3.org/2000/svg">
<path d="M8 13.3333H14" stroke="#155DFC" stroke-width="1.33333" stroke-linecap="round" stroke-linejoin="round"/>
<path d="M10.9173 2.41473C11.1827 2.14934 11.5426 2.00024 11.9179 2.00024C12.2933 2.00024 12.6532 2.14934 12.9186 2.41473C13.184 2.68013 13.3331 3.04008 13.3331 3.4154C13.3331 3.79072 13.184 4.15067 12.9186 4.41607L4.91194 12.4234C4.75334 12.582 4.55729 12.698 4.34194 12.7607L2.42728 13.3194C2.36991 13.3361 2.3091 13.3371 2.25122 13.3223C2.19333 13.3075 2.1405 13.2774 2.09824 13.2351C2.05599 13.1929 2.02587 13.14 2.01104 13.0821C1.99621 13.0242 1.99721 12.9634 2.01394 12.9061L2.57261 10.9914C2.63542 10.7763 2.75144 10.5805 2.90994 10.4221L10.9173 2.41473Z" stroke="#155DFC" stroke-width="1.33333" stroke-linecap="round" stroke-linejoin="round"/>
</svg>

