<svg width="16" height="16" viewBox="0 0 16 16" fill="none" xmlns="http://www.w3.org/2000/svg">
<path d="M2.99996 11C1.99996 11.84 1.66663 14.3333 1.66663 14.3333C1.66663 14.3333 4.15996 14 4.99996 13C5.47329 12.44 5.46663 11.58 4.93996 11.06C4.68083 10.8126 4.33949 10.6697 3.98144 10.6587C3.6234 10.6476 3.27388 10.7691 2.99996 11Z" stroke="#5B6CFF" stroke-width="1.2" stroke-linecap="round" stroke-linejoin="round"/>
<path d="M8 10.0001L6 8.00008C6.35476 7.0797 6.80147 6.19746 7.33333 5.36675C8.11012 4.12474 9.19175 3.10212 10.4753 2.39614C11.7589 1.69017 13.2018 1.32433 14.6667 1.33342C14.6667 3.14675 14.1467 6.33342 10.6667 8.66675C9.82459 9.19923 8.93123 9.64591 8 10.0001Z" stroke="#5B6CFF" stroke-width="1.2" stroke-linecap="round" stroke-linejoin="round"/>
<path d="M5.99996 8.00009H2.66663C2.66663 8.00009 3.03329 5.98009 3.99996 5.33343C5.07996 4.61343 7.33329 5.33343 7.33329 5.33343" stroke="#5B6CFF" stroke-width="1.2" stroke-linecap="round" stroke-linejoin="round"/>
<path d="M8 10.0001V13.3334C8 13.3334 10.02 12.9667 10.6667 12.0001C11.3867 10.9201 10.6667 8.66675 10.6667 8.66675" stroke="#5B6CFF" stroke-width="1.2" stroke-linecap="round" stroke-linejoin="round"/>
</svg>

